<svg width="39" height="39" fill="none" xmlns="http://www.w3.org/2000/svg"><path d="M11.31 0h16.38C33.93 0 39 4.963 39 11.071v16.034c0 2.936-1.192 5.752-3.313 7.828a11.435 11.435 0 0 1-7.997 3.243H11.31C5.07 38.176 0 33.213 0 27.105V11.07c0-2.936 1.192-5.752 3.313-7.828A11.435 11.435 0 0 1 11.31 0Zm-.39 3.818A7.098 7.098 0 0 0 5.956 5.83 6.799 6.799 0 0 0 3.9 10.69v16.797c0 3.798 3.14 6.871 7.02 6.871h17.16a7.098 7.098 0 0 0 4.964-2.012 6.799 6.799 0 0 0 2.056-4.86V10.69c0-3.798-3.14-6.871-7.02-6.871H10.92ZM29.738 6.68c.646 0 1.266.251 1.723.699a2.36 2.36 0 0 1 .714 1.687 2.36 2.36 0 0 1-.714 1.687 2.464 2.464 0 0 1-1.723.699 2.464 2.464 0 0 1-1.724-.7 2.36 2.36 0 0 1-.714-1.686c0-.633.257-1.24.714-1.687a2.464 2.464 0 0 1 1.724-.7ZM19.5 9.544a9.858 9.858 0 0 1 6.894 2.795 9.443 9.443 0 0 1 2.856 6.749 9.443 9.443 0 0 1-2.856 6.749 9.858 9.858 0 0 1-6.894 2.795 9.858 9.858 0 0 1-6.894-2.795 9.443 9.443 0 0 1-2.856-6.749 9.443 9.443 0 0 1 2.856-6.749A9.858 9.858 0 0 1 19.5 9.544Zm0 3.818c-1.552 0-3.04.603-4.137 1.677a5.666 5.666 0 0 0-1.713 4.049c0 1.519.616 2.975 1.713 4.05a5.915 5.915 0 0 0 4.137 1.676c1.552 0 3.04-.603 4.137-1.677a5.666 5.666 0 0 0 1.713-4.049 5.666 5.666 0 0 0-1.713-4.05 5.915 5.915 0 0 0-4.137-1.676Z" fill="#fff"/></svg>