<svg width="39" height="39" viewBox="0 0 39 39" fill="none" xmlns="http://www.w3.org/2000/svg">
<path d="M11.31 0H27.69C33.93 0 39 4.96287 39 11.071V27.1049C39 30.0411 37.8084 32.8571 35.6874 34.9333C33.5663 37.0095 30.6896 38.1759 27.69 38.1759H11.31C5.07 38.1759 0 33.2131 0 27.1049V11.071C0 8.1348 1.19159 5.31884 3.31262 3.24263C5.43366 1.16641 8.3104 0 11.31 0ZM10.92 3.81759C9.05818 3.81759 7.27262 4.54157 5.95611 5.83026C4.63961 7.11894 3.9 8.86678 3.9 10.6893V27.4867C3.9 31.2852 7.0395 34.3583 10.92 34.3583H28.08C29.9418 34.3583 31.7274 33.6343 33.0439 32.3457C34.3604 31.057 35.1 29.3091 35.1 27.4867V10.6893C35.1 6.89075 31.9605 3.81759 28.08 3.81759H10.92ZM29.7375 6.68079C30.384 6.68079 31.004 6.93217 31.4611 7.37963C31.9182 7.82709 32.175 8.43398 32.175 9.06678C32.175 9.69959 31.9182 10.3065 31.4611 10.7539C31.004 11.2014 30.384 11.4528 29.7375 11.4528C29.091 11.4528 28.471 11.2014 28.0139 10.7539C27.5568 10.3065 27.3 9.69959 27.3 9.06678C27.3 8.43398 27.5568 7.82709 28.0139 7.37963C28.471 6.93217 29.091 6.68079 29.7375 6.68079ZM19.5 9.54398C22.0859 9.54398 24.5658 10.5495 26.3943 12.3393C28.2228 14.1292 29.25 16.5567 29.25 19.088C29.25 21.6192 28.2228 24.0467 26.3943 25.8366C24.5658 27.6264 22.0859 28.6319 19.5 28.6319C16.9141 28.6319 14.4342 27.6264 12.6057 25.8366C10.7772 24.0467 9.75 21.6192 9.75 19.088C9.75 16.5567 10.7772 14.1292 12.6057 12.3393C14.4342 10.5495 16.9141 9.54398 19.5 9.54398ZM19.5 13.3616C17.9485 13.3616 16.4605 13.9649 15.3634 15.0388C14.2663 16.1127 13.65 17.5692 13.65 19.088C13.65 20.6067 14.2663 22.0632 15.3634 23.1371C16.4605 24.211 17.9485 24.8143 19.5 24.8143C21.0515 24.8143 22.5395 24.211 23.6366 23.1371C24.7337 22.0632 25.35 20.6067 25.35 19.088C25.35 17.5692 24.7337 16.1127 23.6366 15.0388C22.5395 13.9649 21.0515 13.3616 19.5 13.3616Z" fill="white"/>
</svg>
